<?xml version="1.0" encoding="UTF-8" standalone="no"?>
<!DOCTYPE svg PUBLIC "-//W3C//DTD SVG 1.1//EN" "http://www.w3.org/Graphics/SVG/1.1/DTD/svg11.dtd">
<svg width="100%" height="100%" viewBox="0 0 1167 1167" version="1.1" xmlns="http://www.w3.org/2000/svg" xmlns:xlink="http://www.w3.org/1999/xlink" xml:space="preserve" xmlns:serif="http://www.serif.com/" style="fill-rule:evenodd;clip-rule:evenodd;stroke-linejoin:round;stroke-miterlimit:2;">
    <g id="Square" transform="matrix(4.6668,0,0,4.6668,0,0)">
        <rect x="0" y="0" width="250" height="250" style="fill:none;"/>
        <g transform="matrix(0.214286,0,0,0.21428,125,125)">
            <g transform="matrix(1,0,0,1,-583.333333,-583.333333)">
                <g transform="matrix(4.166667,0,0,4.166667,0,0)">
                    <path d="M280,27.343C280,12.252 267.748,0 252.656,0L27.346,0C12.254,0 0,12.252 0,27.343L0,252.654C0,267.746 12.254,280 27.346,280L252.657,280C267.748,280 280,267.746 280,252.654L280,27.343Z" style="fill:rgb(143,243,97);fill-rule:nonzero;"/>
                </g>
            </g>
        </g>
        <g transform="matrix(1.357982,0,0,1.357982,36.534487,-51.129534)">
            <path d="M122.986,88.249C122.986,68.283 99.859,59.678 70.336,59.678C52.378,59.678 32.072,63.002 13.214,68.95L13.214,107.993C41.005,87.752 71.882,79.087 91.771,79.087C104.277,79.087 112.763,82.577 112.763,88.828C112.763,114.587 0.992,110.505 0.992,166.164C0.992,187.498 15.662,199.721 36.301,199.721C67.519,199.721 91.132,169.383 108.797,132.402L112.376,133.688C103.072,156.287 83.819,181.066 80.069,196.995L120.26,196.995L120.26,114.586L110.977,114.586C97.503,143.864 77.759,170.843 57.258,170.843C47.899,170.843 41.945,165.165 41.945,157.964C41.945,127.147 122.986,120.977 122.986,88.249Z" style="fill-rule:nonzero;"/>
        </g>
    </g>
</svg>
